<svg width="1440" height="615" viewBox="0 0 1440 615" fill="none" xmlns="http://www.w3.org/2000/svg">
<rect x="21" y="135" width="1440" height="480" fill="#E2E2E2"/>
<path d="M2013 735C2013 638.478 1979.54 542.902 1914.54 453.728C1849.53 364.553 1754.26 283.528 1634.14 215.277C1514.03 147.025 1371.44 92.8857 1214.5 55.9485C1057.57 19.0113 889.365 -4.21909e-06 719.5 0C549.635 4.21909e-06 381.434 19.0113 224.499 55.9486C67.5643 92.8858 -75.0301 147.025 -195.143 215.277C-315.255 283.528 -410.534 364.553 -475.538 453.728C-540.543 542.902 -574 638.478 -574 735L719.5 735H2013Z" fill="#f6f6f6"/>
</svg>
